<?xml version="1.0" encoding="UTF-8"?>
<svg width="240" height="80" xmlns="http://www.w3.org/2000/svg" xmlns:svg="http://www.w3.org/2000/svg">
 <!-- Created with SVG-edit - http://svg-edit.googlecode.com/ -->

 <g>
  <title>Layer 1</title>
  <text transform="matrix(1.06317, 0, 0, 1.03594, -11.4558, -1.97159)" font-weight="bold" fill="#000000" stroke="#000000" stroke-width="0" stroke-dasharray="null" stroke-linejoin="null" stroke-linecap="null" x="156.56489" y="33.491799" id="svg_1" font-size="24" font-family="Monospace" text-anchor="middle" xml:space="preserve">A.PORTILLO</text>
  <line fill="none" stroke="#000000" stroke-width="2" stroke-dasharray="null" stroke-linejoin="null" stroke-linecap="null" x1="81.000004" y1="38" x2="168.000001" y2="38" id="svg_2"/>
  <path id="svg_3" d="m43.072693,6.628319c-14.459274,0 -26.689384,9.454941 -30.903778,22.511772l7.771896,0c3.875084,-8.960388 12.746811,-15.237808 23.131882,-15.256279c13.942337,0.022141 25.220352,11.303818 25.242477,25.242546c-0.022125,13.938919 -11.30014,25.220474 -25.242477,25.242706c-10.385071,-0.014709 -19.26062,-6.299744 -23.135468,-15.263611l-7.768312,0c4.218241,13.060287 16.444506,22.519028 30.907377,22.52272c17.942799,-0.003693 32.497852,-14.55159 32.50182,-32.501816c-0.007385,-17.950264 -14.562592,-32.494148 -32.505417,-32.498039zm-10.034454,42.477135l17.293442,-9.979095l-17.293442,-9.986267l0,5.554054l-26.541557,0l0,8.85334l26.541557,0l0,5.557968z" stroke-width="5" stroke="#000000" fill="#FF0000"/>
 </g>
</svg>